<svg xmlns="http://www.w3.org/2000/svg" fill="none" viewBox="0 0 65 64" height="64" width="65">
<g clip-path="url(#clip0_316_340)">
<path fill="#58D09E" d="M1.48928 40.4786C0.734741 37.7307 0.350586 34.8766 0.350586 32.0019C0.350586 18.8791 8.59227 6.88016 20.8605 2.14844L22.469 6.3114C11.9088 10.3853 4.81612 20.7087 4.81612 32.0019C4.81612 34.4791 5.14536 36.9323 5.79359 39.2964L1.48928 40.4786Z"></path>
<path fill="#58D09E" d="M20.6461 2.25038C23.3 1.21274 26.0984 0.532349 28.9573 0.231864C42.0082 -1.13984 54.8029 5.80246 60.7911 17.5088L56.8191 19.5437C51.6637 9.46722 40.6554 3.49247 29.4241 4.67293C26.9604 4.93187 24.5551 5.51574 22.2717 6.40753L20.6461 2.25038Z"></path>
<path fill="black" d="M46.9978 55.2686C55.7122 49.7138 60.566 39.8558 59.6642 29.5476C59.3446 25.8951 58.3309 22.4067 56.6562 19.1862L60.6132 17.122C62.5607 20.8661 63.7404 24.915 64.1117 29.1585C65.1594 41.1341 59.5229 52.5822 49.3979 59.0352L46.9978 55.2686Z"></path>
<path fill="black" d="M22.8532 25.3993C25.4425 25.3993 27.5518 26.7801 28.6357 29.1888L28.7214 29.3773L33.0702 27.9005L32.9777 27.6779C31.2937 23.5765 27.4146 21.0273 22.8532 21.0273C19.6462 21.0273 17.0397 22.0553 14.8858 24.1659C12.7456 26.2628 11.6619 28.9011 11.6619 32.0087C11.6619 35.0889 12.7456 37.7135 14.8858 39.8104C17.0397 41.9211 19.6462 42.9489 22.8532 42.9489C27.4146 42.9489 31.2937 40.3997 32.9777 36.3019L33.0702 36.0792L28.7145 34.5989L28.6322 34.7943C27.6616 37.1619 25.5009 38.5769 22.8532 38.5769C21.049 38.5769 19.5262 37.9465 18.3189 36.7061C17.098 35.4487 16.4806 33.8692 16.4806 32.0121C16.4806 30.1413 17.0842 28.5927 18.3189 27.2769C19.5228 26.0299 21.049 25.3993 22.8532 25.3993Z"></path>
<path fill="black" d="M50.0921 21.4316L43.8946 37.1138L37.656 21.4316H32.5525L41.3017 42.8358L35.0768 57.932L39.5389 58.8195L54.9144 21.4316H50.0921Z"></path>
<path fill="black" d="M35.8751 55.9859L34.7879 58.6174C34.5718 59.1382 34.0779 59.491 33.5223 59.515C33.1554 59.5287 32.785 59.539 32.4111 59.539C19.6147 59.5322 8.29316 50.5107 5.48763 38.0801L1.13184 39.0634C2.70609 46.0359 6.65717 52.3643 12.2579 56.8871C17.9239 61.4611 25.0611 63.9863 32.3631 64.0001C32.3734 64.0001 32.4282 64.0001 32.4282 64.0001C32.857 64.0001 33.2822 63.9898 33.7075 63.9727C35.9986 63.8767 38.0462 62.4411 38.9207 60.3134L40.3406 56.8734L35.8751 55.9859Z"></path>
</g>
<defs>
<clipPath id="clip0_316_340">
<rect transform="translate(0.350586)" fill="white" height="64" width="64"></rect>
</clipPath>
</defs>
</svg>
